<svg width="142" height="47" viewBox="0 0 142 47" fill="none" xmlns="http://www.w3.org/2000/svg">
<path d="M122.898 4.13673C122.566 3.24278 122.337 2.62983 122.285 1.91503C122.285 0.868296 122.974 -0.000195503 124.302 -0.000195503C125.247 -0.000195503 125.937 0.510896 126.192 1.40485L128.133 7.86533H128.183L129.971 2.27243C130.303 1.2257 130.686 -0.000195503 132.116 -0.000195503C133.547 -0.000195503 133.929 1.2257 134.261 2.27243L136.049 7.86533H136.1L138.04 1.40485C138.296 0.510896 138.985 -0.000195503 139.93 -0.000195503C141.257 -0.000195503 141.947 0.868296 141.947 1.91503C141.896 2.62983 141.667 3.24278 141.334 4.13673L138.55 11.925C138.091 13.2272 137.427 13.8911 136.074 13.8911C134.644 13.8911 134.16 13.1508 133.7 11.7976L132.142 7.0987H132.091L130.533 11.7976C130.073 13.1508 129.588 13.8911 128.159 13.8911C126.804 13.8911 126.141 13.2272 125.681 11.925L122.898 4.13673Z" fill="#009E4B"/>
<path d="M1.39595 23.5838C0.639318 21.4931 0.116405 20.0589 0 18.3865C0 15.9374 1.57056 13.9067 4.59527 13.9067C6.74786 13.9067 8.31842 15.1017 8.90044 17.1915L13.322 32.3051H13.4384L17.5108 19.2232C18.2665 16.7741 19.1395 13.9067 22.3971 13.9067C25.6546 13.9067 26.5276 16.7741 27.2833 19.2232L31.3557 32.3051H31.4721L35.8937 17.1915C36.4757 15.1017 38.0454 13.9067 40.1979 13.9067C43.2236 13.9067 44.7941 15.9374 44.7941 18.3865C44.6777 20.0589 44.1539 21.4931 43.3982 23.5838L37.0568 41.803C36.0101 44.8496 34.4968 46.4028 31.4139 46.4028C28.1564 46.4028 27.0505 44.6704 26.0038 41.5047L22.4553 30.5126H22.3389L18.7903 41.5047C17.7427 44.6704 16.6377 46.4028 13.3802 46.4028C10.2964 46.4028 8.78404 44.8496 7.7373 41.803L1.39595 23.5838Z" fill="#1B181C"/>
<path d="M54.4549 30.1549C54.4549 34.4555 56.6657 38.0395 60.6799 38.0395C64.6931 38.0395 66.9039 34.4555 66.9039 30.1549C66.9039 25.8534 64.6931 22.2694 60.6799 22.2694C56.6657 22.2694 54.4549 25.8534 54.4549 30.1549ZM75.9799 41.5644C75.9799 44.2527 74.1174 46.4034 71.4419 46.4034C69.2311 46.4034 67.8351 44.8501 67.1949 43.416C65.1587 45.9842 62.8316 47 59.3994 47C51.4875 47 45.3799 39.5328 45.3799 30.1549C45.3799 20.7761 51.4875 13.3089 59.3994 13.3089C62.8316 13.3089 65.1587 14.3247 67.1949 16.8929C67.8351 15.4597 69.2311 13.9064 71.4419 13.9064C74.1174 13.9064 75.9799 16.0572 75.9799 18.7454V41.5644Z" fill="#1B181C"/>
<path d="M79.8154 4.88672C79.8154 2.19849 81.677 0.0477219 84.3525 0.0477219C87.0289 0.0477219 88.8905 2.19849 88.8905 4.88672V41.5643C88.8905 44.2526 87.0289 46.4033 84.3525 46.4033C81.677 46.4033 79.8154 44.2526 79.8154 41.5643V4.88672Z" fill="#1B181C"/>
<path d="M100.753 30.1549C100.753 34.4555 102.964 38.0395 106.978 38.0395C110.992 38.0395 113.203 34.4555 113.203 30.1549C113.203 25.8534 110.992 22.2694 106.978 22.2694C102.964 22.2694 100.753 25.8534 100.753 30.1549ZM122.278 41.5644C122.278 44.2527 120.416 46.4034 117.741 46.4034C115.53 46.4034 114.133 44.8501 113.494 43.416C111.457 45.9842 109.13 47 105.698 47C97.7863 47 91.6777 39.5328 91.6777 30.1549C91.6777 20.7761 97.7863 13.3089 105.698 13.3089C109.13 13.3089 111.457 14.3247 113.494 16.8929C114.133 15.4597 115.53 13.9064 117.741 13.9064C120.416 13.9064 122.278 16.0572 122.278 18.7454V41.5644Z" fill="#1B181C"/>
</svg>
